#!OML:ASF G:\ViconDB\ViconDB\414\test\team2\shane.ASF
:FULLY-SPECIFIED
:DEGREES
188
root 2.23632 16.5199 -7.19242 -6.00602 -2.30106 -2.73292
lowerback 8.9029 2.11415 2.13717
upperback 4.47031 2.97014 -0.070405
thorax -0.241936 1.51907 -1.53258
lowerneck -12.0546 -2.27763 -8.41283
upperneck 23.006 -0.567043 -2.93263
head 9.31336 -1.29808 0.334181
rclavicle 4.87519e-014 -1.31198e-014
rhumerus -21.7346 -10.382 -49.1956
rradius 121.648
rwrist 155.344
rhand -13.6613 10.9045
rfingers 7.12502
rthumb 12.4556 -18.7043
lclavicle -1.86858e-014 -2.38542e-015
lhumerus -50.2498 -26.2717 101.217
lradius 43.4709
lwrist -15.0197
lhand -38.953 5.73258
lfingers 7.12502
lthumb -11.9583 35.371
rfemur 21.8515 -5.47431 13.2455
rtibia 37.113
rfoot -2.26245 3.63484
rtoes -23.9582
lfemur -18.5973 8.7864 -12.4758
ltibia 36.6933
lfoot -16.6173 -11.2339
ltoes -2.69628
189
root 2.26029 16.5381 -6.98765 -6.15916 -2.3049 -2.38504
lowerback 8.97115 2.12501 1.8591
upperback 4.42713 2.96238 -0.264783
thorax -0.328646 1.51174 -1.58089
lowerneck -12.2366 -2.25042 -8.30183
upperneck 24.8243 -0.352955 -3.2525
head 9.99314 -1.29448 0.214471
rclavicle -8.44835e-015 1.98785e-015
rhumerus -22.9836 -17.0771 -51.3951
rradius 124.26
rwrist 156.007
rhand -12.3822 11.893
rfingers 7.12502
rthumb 13.6887 -17.6369
lclavicle -1.86858e-014 -2.38542e-015
lhumerus -50.2498 -26.2717 101.217
lradius 43.4709
lwrist -15.0197
lhand -38.953 5.73258
lfingers 7.12502
lthumb -11.9583 35.371
rfemur 19.6805 -5.7113 12.6072
rtibia 41.795
rfoot 0.488275 3.58197
rtoes -20.7166
lfemur -17.6684 9.43604 -12.8317
ltibia 36.7124
lfoot -17.3157 -11.7447
ltoes -2.87845
190
root 2.28599 16.5572 -6.78307 -6.33445 -2.39794 -2.05734
lowerback 9.10873 2.1414 1.50529
upperback 4.41596 2.95649 -0.38502
thorax -0.428037 1.50365 -1.51289
lowerneck -12.5738 -2.23166 -8.39895
upperneck 26.7852 -0.112016 -3.39522
head 10.7808 -1.2889 0.188803
rclavicle -7.55382e-014 1.07344e-014
rhumerus -23.0502 -18.584 -52.1214
rradius 124.749
rwrist 155.423
rhand -11.7213 12.402
rfingers 7.12502
rthumb 14.3255 -17.0838
lclavicle -1.86858e-014 -2.38542e-015
lhumerus -50.2498 -26.2717 101.217
lradius 43.4709
lwrist -15.0197
lhand -38.953 5.73258
lfingers 7.12502
lthumb -11.9583 35.371
rfemur 17.5809 -5.97741 11.9745
rtibia 46.1074
rfoot 3.30688 3.46589
rtoes -17.9508
lfemur -16.6386 9.9778 -13.1904
ltibia 36.723
lfoot -18.138 -11.9399
ltoes -2.52986
191
root 2.31211 16.5676 -6.58141 -6.498 -2.41713 -1.82553
lowerback 9.18754 2.10125 1.24692
upperback 4.40002 2.88283 -0.411991
thorax -0.502287 1.46255 -1.39353
lowerneck -12.8564 -2.12803 -8.64244
upperneck 28.7724 0.273469 -3.46535
head 11.5973 -1.23032 0.232347
rclavicle -1.1778e-014 1.27222e-014
rhumerus -22.8195 -20.0329 -52.4303
rradius 123.987
rwrist 152.088
rhand -11.99 10.7058
rfingers 7.12502
rthumb 14.0667 -18.7981
lclavicle -1.86858e-014 -2.38542e-015
lhumerus -50.2498 -26.2717 101.217
lradius 43.4709
lwrist -15.0197
lhand -38.953 5.73258
lfingers 7.12502
lthumb -11.9583 35.371
rfemur 15.5521 -6.41691 11.4661
rtibia 50.0565
rfoot 6.40848 3.05038
rtoes -13.4581
lfemur -15.7352 10.3309 -13.4283
ltibia 36.8432
lfoot -18.8705 -12.1317
ltoes -2.39308
192
root 2.33421 16.5635 -6.38884 -6.7729 -2.30754 -1.62785
lowerback 9.4296 2.01075 0.943996
upperback 4.43542 2.73816 -0.500473
thorax -0.613138 1.38616 -1.31113
lowerneck -13.0998 -2.06404 -8.42403
upperneck 30.6802 0.601617 -3.91237
head 12.4099 -1.19698 0.0480275
rclavicle 2.00276e-014 -7.55382e-015
rhumerus -22.4139 -19.0468 -53.4705
rradius 125.426
rwrist 159.487
rhand -10.0832 13.8245
rfingers 7.12502
rthumb 15.9035 -15.5425
lclavicle -1.86858e-014 -2.38542e-015
lhumerus -50.2498 -26.2717 101.217
lradius 43.4709
lwrist -15.0197
lhand -38.953 5.73258
lfingers 7.12502
lthumb -11.9583 35.371
rfemur 13.7995 -6.88748 11.0947
rtibia 53.6288
rfoot 8.50173 2.24131
rtoes -10.5552
lfemur -14.8079 10.5906 -13.6223
ltibia 37.0418
lfoot -19.5736 -12.1913
ltoes -2.54691
193
root 2.35626 16.5522 -6.19082 -7.21518 -2.20221 -1.61207
lowerback 9.64387 1.94052 0.934616
upperback 4.56217 2.64599 -0.460795
thorax -0.604058 1.34034 -1.26167
lowerneck -13.2249 -2.01903 -8.63482
upperneck 32.5956 0.966375 -4.17442
head 13.2461 -1.17715 0.00531868
rclavicle 3.41413e-014 4.77083e-015
rhumerus -22.0688 -19.2143 -53.5565
rradius 124.695
rwrist 157.409
rhand -10.0752 13.563
rfingers 7.12502
rthumb 15.9113 -15.8034
lclavicle 3.41413e-014 4.77083e-015
lhumerus -50.9565 -23.4292 96.1216
lradius 43.8791
lwrist -13.5477
lhand -38.0539 4.8599
lfingers 7.12502
lthumb -11.0913 34.5468
rfemur 12.4422 -7.36903 10.9081
rtibia 56.9159
rfoot 8.27499 1.08061
rtoes -9.49688
lfemur -13.807 10.7384 -13.5629
ltibia 37.4044
lfoot -20.1808 -12.2259
ltoes -2.63921
194
root 2.37777 16.5465 -5.99177 -7.636 -2.02445 -1.5799
lowerback 9.65415 1.82606 0.828835
upperback 4.80517 2.48518 -0.462101
thorax -0.366878 1.26142 -1.18298
lowerneck -13.3624 -1.99748 -8.55289
upperneck 34.3666 1.27663 -4.59712
head 14.0658 -1.16706 -0.164443
rclavicle -5.1684e-014 1.27222e-014
rhumerus -21.4337 -19.2109 -53.5406
rradius 122.836
rwrist 152.535
rhand -11.5822 11.402
rfingers 7.12502
rthumb 14.4596 -18.0742
lclavicle -5.1684e-014 1.27222e-014
lhumerus -50.182 -23.936 95.9747
lradius 43.5333
lwrist -13.9857
lhand -38.0246 5.28878
lfingers 7.12502
lthumb -11.063 34.9772
rfemur 11.1517 -8.05692 10.6415
rtibia 59.9166
rfoot 6.01457 0.084594
rtoes -11.0137
lfemur -12.8644 10.6218 -13.5388
ltibia 37.8724
lfoot -20.9274 -12.0827
ltoes -2.54747
195
root 2.39879 16.5199 -5.80349 -8.02131 -1.84891 -1.49604
lowerback 9.67257 1.71691 0.696962
upperback 5.00626 2.32915 -0.501975
thorax -0.176144 1.18389 -1.13166
lowerneck -13.4328 -1.90665 -8.22207
upperneck 36.166 1.68697 -5.17973
head 14.9308 -1.10586 -0.439714
rclavicle -1.23246e-014 4.37326e-015
rhumerus -21.4337 -19.2109 -53.5406
rradius 122.836
rwrist 152.535
rhand -11.5822 11.402
rfingers 7.12502
rthumb 14.4596 -18.0742
lclavicle -1.23246e-014 4.37326e-015
lhumerus -49.472 -25.2243 96.0442
lradius 43.127
lwrist -13.7013
lhand -38.0316 4.82614
lfingers 7.12502
lthumb -11.0697 34.5142
rfemur 9.81538 -8.67871 10.3683
rtibia 62.7261
rfoot 3.27537 -0.399571
rtoes -10.9094
lfemur -12.0179 10.3002 -13.6201
ltibia 38.4249
lfoot -21.7585 -11.6474
ltoes -2.78722
196
root 2.4147 16.4915 -5.61176 -8.52744 -1.64459 -1.42361
lowerback 9.62066 1.61382 0.461628
upperback 5.31752 2.17438 -0.41979
thorax 0.159147 1.10396 -0.89265
lowerneck -13.344 -1.86159 -8.30212
upperneck 37.7976 2.03653 -5.49398
head 15.7294 -1.08232 -0.549443
rclavicle -8.99501e-015 -9.54166e-015
rhumerus -21.4337 -19.2109 -53.5406
rradius 122.836
rwrist 152.535
rhand -11.5822 11.402
rfingers 7.12502
rthumb 14.4596 -18.0742
lclavicle -8.99501e-015 -9.54166e-015
lhumerus -48.74 -25.9059 96.0772
lradius 42.7968
lwrist -14.4586
lhand -37.8896 5.17276
lfingers 7.12502
lthumb -10.9328 34.8681
rfemur 8.67088 -9.40104 10.1094
rtibia 65.2516
rfoot 0.915837 -0.316186
rtoes -11.5354
lfemur -11.0261 10.0696 -13.6307
ltibia 38.9909
lfoot -22.7015 -11.3916
ltoes -2.97345
